<svg xmlns="http://www.w3.org/2000/svg" viewBox="0 0 1866.689226 1829.240423" xmlns:c2pa="http://c2pa.org/manifest">
<g transform="translate(-22.056935,1828.775621) scale(0.100000,-0.100000)" fill="#c4b89f">
<path d="M7130 18280 c-102 -4 -241 -15 -310 -24 -120 -16 -189 -28 -542 -96 -87 -16 -249 -43 -360 -60 -947 -144 -2007 -572 -2745 -1109 -835 -606 -1145 -907 -1627 -1579 -523 -728 -847 -1453 -1095 -2450 -111 -445 -116 -477 -142 -907 -6 -99 -26 -306 -45 -460 -58 -463 -58 -724 1 -1155 32 -234 43 -369 55 -655 11 -275 22 -356 85 -642 25 -113 61 -287 80 -385 140 -735 572 -1971 958 -2743 707 -1415 1560 -2499 2667 -3388 124 -100 290 -236 370 -302 590 -492 1480 -1042 2215 -1368 94 -41 254 -114 357 -161 445 -203 928 -368 1411 -482 106 -25 271 -65 367 -89 96 -25 249 -58 340 -75 245 -46 327 -72 412 -131 53 -38 1820 -27 1876 11 81 54 143 72 469 135 145 27 618 148 891 226 1034 297 2132 890 3027 1634 231 192 1061 1021 1247 1245 385 464 659 894 993 1556 222 441 297 643 565 1519 121 393 189 581 219 599 39 24 11 2324 -29 2392 -55 94 -93 214 -210 654 -97 365 -282 906 -407 1190 -599 1356 -904 1756 -1225 1608 -297 -137 -303 -409 -19 -878 459 -757 814 -1692 951 -2501 22 -129 55 -311 74 -405 67 -325 71 -372 71 -859 0 -481 -4 -535 -65 -833 -17 -81 -51 -264 -75 -407 -123 -706 -417 -1514 -761 -2085 -1271 -2117 -3018 -3228 -4644 -2955 -1179 198 -2223 789 -3560 2015 -601 552 -3357 3308 -3462 3463 -128 188 -128 357 -1 552 51 77 493 522 4724 4754 2997 2998 2964 2963 3058 3141 162 303 72 550 -305 837 -377 287 -1323 763 -1925 968 -875 299 -1437 443 -2045 525 -126 18 -348 51 -494 75 -530 88 -834 106 -1390 85z m-1795 -1650 c909 -86 2136 -723 3088 -1603 72 -68 256 -235 407 -371 945 -855 1057 -1055 794 -1428 -70 -101 -4574 -4612 -4689 -4697 -232 -173 -430 -167 -658 22 -276 228 -1208 1235 -1460 1579 -904 1231 -1314 2443 -1146 3388 126 711 353 1189 875 1840 556 694 1448 1198 2254 1274 86 8 435 5 535 -4z"/>
</g>
</svg>
